<?xml version="1.0" standalone="no"?>
<!DOCTYPE svg PUBLIC "-//W3C//DTD SVG 20010904//EN"
 "http://www.w3.org/TR/2001/REC-SVG-20010904/DTD/svg10.dtd">
<svg version="1.0" xmlns="http://www.w3.org/2000/svg"
 width="512.000000pt" height="512.000000pt" viewBox="0 0 512.000000 512.000000"
 preserveAspectRatio="xMidYMid meet">

<g transform="translate(0.000000,512.000000) scale(0.100000,-0.100000)"
fill="#000000" stroke="none">
<path d="M4745 5090 c-60 -3 -105 -7 -100 -9 19 -5 50 -11 88 -15 68 -9 64
-21 -8 -27 -38 -3 -81 -9 -95 -13 -14 -4 -151 -9 -305 -11 -154 -3 -296 -7
-315 -11 l-34 -6 22 -17 23 -17 -26 -24 -25 -24 27 -28 c23 -24 25 -31 13 -38
-19 -12 -7 -22 27 -22 15 0 37 -7 49 -14 25 -17 173 -25 192 -11 8 6 12 6 12
-1 0 -6 -4 -14 -10 -17 -5 -3 -10 -13 -10 -21 0 -11 6 -13 20 -9 14 4 36 -4
68 -25 45 -31 46 -32 16 -28 -23 3 -30 0 -31 -13 -1 -12 3 -16 13 -12 8 3 22
-1 32 -9 9 -9 24 -18 32 -22 9 -4 7 -5 -5 -3 -11 2 -26 -2 -33 -9 -18 -20 -14
-27 12 -20 16 4 26 1 30 -10 4 -10 2 -13 -6 -8 -7 4 -8 3 -4 -4 5 -8 21 -10
47 -6 31 5 39 3 39 -8 0 -11 7 -14 24 -11 18 4 29 -2 41 -21 9 -14 14 -30 11
-35 -11 -16 11 -22 24 -6 10 12 10 18 0 30 -11 13 -10 18 6 30 23 17 38 19 28
4 -5 -8 1 -10 18 -7 20 4 24 1 21 -13 -3 -9 0 -20 6 -23 6 -4 11 -3 11 2 0 6
6 12 14 15 9 4 12 0 9 -13 -3 -10 0 -21 6 -24 6 -4 11 -13 11 -19 0 -7 -6 -5
-13 5 -16 20 -74 21 -81 1 -3 -8 2 -13 15 -13 16 0 19 -4 13 -22 -6 -21 -6
-21 10 -5 19 19 46 23 46 7 0 -16 33 -50 49 -50 19 0 86 -72 82 -89 -1 -7 3
-11 10 -9 8 3 13 16 14 30 0 14 6 32 13 40 7 10 13 49 13 102 1 61 6 92 16
102 8 8 11 14 6 14 -16 0 -14 72 2 90 8 9 15 25 14 36 -6 60 14 73 35 22 8
-17 11 -48 9 -70 -4 -26 -2 -38 6 -38 8 0 10 -8 6 -19 -3 -11 -1 -22 5 -26 7
-4 11 44 12 147 4 302 4 331 -10 345 -14 14 -53 14 -257 3z m-6 -84 c10 -12 7
-14 -23 -13 -49 3 -46 16 5 26 4 0 12 -5 18 -13z m161 -36 c0 -41 -13 -50 -54
-34 -20 8 -21 24 -1 24 9 0 15 9 15 25 0 18 5 25 20 25 17 0 20 -7 20 -40z
m-485 -28 c-3 -3 -11 0 -18 7 -9 10 -8 11 6 5 10 -3 15 -9 12 -12z m-135 -72
c0 -5 -4 -10 -10 -10 -5 0 -10 5 -10 10 0 6 5 10 10 10 6 0 10 -4 10 -10z
m-140 -50 c0 -5 -8 -10 -17 -10 -15 0 -16 2 -3 10 19 12 20 12 20 0z m355
-210 c3 -5 1 -10 -4 -10 -6 0 -11 5 -11 10 0 6 2 10 4 10 3 0 8 -4 11 -10z
m358 -160 c0 -40 -4 -55 -14 -55 -14 0 -15 6 -11 81 3 58 25 35 25 -26z"/>
<path d="M4383 5083 c15 -2 37 -2 50 0 12 2 0 4 -28 4 -27 0 -38 -2 -22 -4z"/>
<path d="M3595 5001 c-6 -5 -26 -11 -45 -14 -19 -2 1 -2 45 -1 44 1 106 3 138
3 31 1 57 6 57 11 0 13 -182 13 -195 1z"/>
<path d="M3860 5000 c0 -5 7 -10 15 -10 8 0 15 5 15 10 0 6 -7 10 -15 10 -8 0
-15 -4 -15 -10z"/>
<path d="M3765 4970 c-3 -5 -26 -10 -51 -10 -28 0 -43 -4 -39 -10 3 -5 24 -10
46 -10 21 0 39 5 39 10 0 6 21 10 46 10 27 0 43 4 39 10 -3 6 -21 10 -40 10
-19 0 -37 -4 -40 -10z"/>
<path d="M3893 4933 c9 -2 25 -2 35 0 9 3 1 5 -18 5 -19 0 -27 -2 -17 -5z"/>
<path d="M3788 4923 c6 -2 18 -2 25 0 6 3 1 5 -13 5 -14 0 -19 -2 -12 -5z"/>
<path d="M3579 4893 c-319 -3 -327 -4 -332 -24 -4 -15 1 -23 19 -30 14 -5 31
-9 37 -9 7 -1 21 -8 32 -18 19 -16 20 -31 23 -254 l2 -237 -25 -17 c-14 -9
-40 -20 -58 -23 -26 -6 -32 -12 -32 -31 l0 -25 190 -3 c219 -3 238 -1 233 31
-2 18 -12 23 -48 28 -25 4 -58 11 -75 16 l-30 9 -5 98 c-3 54 -3 100 -1 102 2
2 60 4 128 4 130 0 130 0 135 50 l3 25 -130 1 -130 1 -3 117 -3 116 114 0
c145 0 168 -8 188 -63 14 -36 21 -43 52 -48 56 -9 61 -1 58 90 -1 50 2 81 9
81 5 0 10 5 10 10 0 6 -8 9 -17 8 -10 -2 -165 -4 -344 -5z"/>
<path d="M1595 4884 c-11 -3 -34 -12 -52 -20 -17 -8 -34 -14 -37 -14 -3 0 -34
-20 -70 -45 -87 -61 -121 -115 -130 -203 -12 -119 4 -160 98 -252 66 -64 193
-91 244 -52 34 26 20 48 -36 56 -68 9 -124 65 -141 140 -15 69 -6 177 20 228
21 42 82 88 116 88 12 0 25 5 28 10 9 15 100 12 163 -6 119 -34 164 -100 166
-243 0 -47 -3 -102 -7 -121 -10 -46 -81 -123 -137 -148 -65 -29 -201 -72 -230
-73 -52 -1 -133 -35 -142 -59 -14 -37 3 -44 74 -31 71 14 150 2 295 -44 113
-36 165 -33 255 13 54 27 74 43 76 60 5 32 -19 37 -93 17 -69 -19 -150 -17
-253 5 -61 14 -60 25 2 33 47 7 137 48 170 79 11 10 23 18 27 18 15 0 107 137
118 175 22 81 8 188 -30 226 -10 10 -19 23 -19 28 0 17 -83 81 -140 108 -50
24 -68 27 -185 29 -71 2 -139 1 -150 -2z"/>
<path d="M2251 4881 c-12 -8 -12 -12 -2 -25 8 -9 20 -16 28 -16 8 0 27 -7 43
-15 l30 -16 0 -244 c0 -232 -1 -246 -20 -265 -11 -11 -33 -20 -50 -20 -38 0
-60 -34 -31 -49 15 -9 166 -9 324 -1 4 0 7 9 7 19 0 14 -9 21 -32 26 -81 16
-88 22 -88 84 0 31 -3 125 -7 209 -3 83 -3 152 1 152 4 0 74 -66 155 -147 342
-341 355 -353 400 -353 23 0 41 1 42 3 0 1 3 130 6 287 5 306 8 320 58 320 31
0 59 24 52 44 -6 15 -25 16 -174 14 -141 -3 -168 -5 -168 -18 0 -9 18 -20 45
-29 74 -22 78 -32 81 -236 2 -116 0 -180 -7 -182 -6 -2 -77 62 -160 143 -82
81 -190 186 -240 235 l-91 89 -94 0 c-52 0 -100 -4 -108 -9z"/>
<path d="M3947 4862 c-3 -4 -4 -25 -3 -47 1 -37 3 -40 31 -41 17 0 37 -4 45
-8 11 -4 16 -1 17 14 1 16 -4 20 -32 20 -39 0 -55 18 -32 35 14 10 14 12 -3
23 -11 6 -21 8 -23 4z"/>
<path d="M4530 4541 c-7 -15 -7 -21 0 -21 12 0 25 28 17 36 -3 3 -10 -4 -17
-15z"/>
<path d="M4610 4550 c0 -5 5 -10 10 -10 6 0 10 5 10 10 0 6 -4 10 -10 10 -5 0
-10 -4 -10 -10z"/>
<path d="M5001 4474 c0 -11 3 -14 6 -6 3 7 2 16 -1 19 -3 4 -6 -2 -5 -13z"/>
<path d="M47 4445 c-4 -11 -8 -112 -9 -225 l-1 -205 365 -3 c201 -1 389 2 419
7 46 7 35 9 -81 10 -151 1 -181 6 -173 27 4 12 -29 14 -204 14 -149 0 -212 3
-221 12 -8 8 -12 48 -12 113 0 60 -6 122 -15 150 -8 27 -12 52 -9 57 3 4 -4 8
-15 8 -12 0 -23 10 -29 28 -8 25 -9 25 -15 7z"/>
<path d="M4740 4370 c0 -5 12 -10 28 -10 21 0 24 -2 12 -10 -8 -5 -10 -10 -4
-10 18 0 24 13 13 27 -13 15 -49 18 -49 3z"/>
<path d="M1318 4023 c6 -2 18 -2 25 0 6 3 1 5 -13 5 -14 0 -19 -2 -12 -5z"/>
<path d="M4610 3739 c-30 -3 -49 -6 -42 -7 7 -1 11 -6 7 -11 -8 -14 15 -25 27
-13 6 6 31 8 59 5 33 -4 54 -1 65 7 13 11 17 11 24 1 4 -8 13 -10 20 -6 7 5
30 7 52 7 21 -1 38 2 38 7 0 12 -173 18 -250 10z"/>
<path d="M5017 3741 c-16 -6 -16 -9 -5 -18 24 -19 56 -22 63 -5 10 26 -21 38
-58 23z"/>
<path d="M4895 3730 c3 -5 13 -10 21 -10 8 0 14 5 14 10 0 6 -9 10 -21 10 -11
0 -17 -4 -14 -10z"/>
<path d="M4030 3659 c-426 -3 -1474 -7 -2327 -8 -1235 -1 -1553 -4 -1553 -13
0 -7 -2 -749 -6 -1648 l-7 -1635 45 -23 c25 -12 51 -22 57 -22 7 0 29 -11 49
-25 20 -14 40 -25 44 -25 17 0 198 -92 198 -101 0 -5 7 -9 15 -9 8 0 70 -27
137 -59 68 -33 135 -63 150 -66 16 -4 28 -11 28 -16 0 -5 706 -9 1687 -9
l1686 0 66 31 c36 17 75 35 86 42 11 6 47 24 80 40 33 15 69 33 80 39 28 16
212 107 318 158 49 24 90 48 92 54 2 6 6 539 9 1184 3 645 8 1382 12 1637 l6
463 -29 6 c-51 11 -142 12 -923 5z m-2161 -121 c11 -28 35 -50 81 -73 19 -10
37 -21 40 -24 5 -6 55 -35 105 -61 17 -8 42 -23 55 -33 43 -32 165 -107 173
-107 4 0 17 -9 29 -20 23 -21 53 -26 63 -10 3 6 15 10 26 10 16 0 18 -5 13
-25 -8 -33 17 -43 51 -21 21 14 24 20 15 36 -8 14 -8 20 0 20 6 0 13 -6 16
-14 3 -8 19 -18 35 -21 16 -4 29 -11 29 -16 0 -12 -14 -11 -27 2 -8 8 -16 7
-31 -2 -24 -15 -36 -49 -22 -63 7 -7 10 -4 10 7 0 19 11 22 26 7 7 -7 17 -3
32 10 22 21 62 27 62 10 0 -5 -8 -10 -18 -10 -15 0 -59 -38 -50 -44 2 -1 21
-13 43 -27 22 -15 50 -29 61 -33 11 -3 29 -14 40 -24 28 -24 100 -62 118 -62
8 0 16 -4 18 -9 3 -9 88 -56 209 -117 110 -55 206 -70 263 -40 61 31 62 -12 4
-80 -55 -62 -195 -164 -225 -164 -26 0 -31 24 -9 53 22 29 7 63 -55 122 -55
53 -79 62 -79 31 0 -7 -12 -22 -26 -32 -44 -32 -53 -44 -48 -59 5 -12 -3 -15
-34 -15 -23 0 -43 4 -47 9 -3 5 -19 12 -36 16 -27 6 -92 44 -217 127 -22 15
-51 30 -65 33 -14 4 -42 22 -63 41 -34 32 -40 34 -62 23 -13 -7 -28 -21 -33
-31 -12 -22 -29 -23 -55 -3 -18 14 -18 15 19 49 20 19 37 40 37 46 0 16 -29
-3 -63 -39 -28 -31 -52 -39 -59 -22 -1 5 -18 17 -37 28 -46 25 -49 39 -12 60
34 20 35 31 6 47 -70 39 -175 109 -194 130 -37 40 -31 79 20 126 35 33 50 40
83 40 35 0 38 2 26 14 -8 8 -42 29 -75 47 -33 17 -67 37 -75 44 -26 22 -104
55 -143 62 -48 7 -52 14 -26 47 26 33 66 35 78 4z m622 -303 c1 -17 -18 -17
-25 0 -4 11 -1 15 10 13 8 -2 15 -7 15 -13z m1741 -551 c174 -29 284 -77 257
-110 -11 -14 -202 -13 -247 1 -16 5 -37 1 -65 -13 -26 -12 -74 -23 -125 -27
-104 -9 -157 -33 -165 -74 -4 -16 -16 -35 -28 -41 -26 -14 -69 -5 -69 15 0 28
-49 95 -70 95 -26 0 -42 30 -27 51 21 26 61 49 87 49 14 0 36 7 48 16 12 8 55
20 95 25 39 5 95 14 122 18 76 12 88 12 187 -5z m-2632 -58 c52 -2 103 -7 113
-11 32 -13 14 -88 -35 -142 -11 -12 -18 -28 -15 -35 5 -14 119 -58 150 -58 47
0 1 34 -61 45 -50 8 -56 32 -17 70 30 31 50 33 33 4 -11 -18 -10 -23 12 -37
59 -40 104 -78 102 -87 -4 -24 -184 -11 -218 16 -6 5 -59 15 -118 21 -58 7
-106 16 -106 20 0 12 31 60 52 81 14 14 32 17 87 16 38 -1 74 1 80 5 19 12 12
43 -11 50 -37 9 -45 7 -76 -19 -17 -14 -38 -24 -49 -23 -45 4 -63 -3 -77 -29
-8 -16 -26 -41 -40 -56 -14 -15 -26 -34 -26 -42 0 -21 54 -33 174 -39 133 -6
156 -19 114 -63 -19 -21 -32 -54 -48 -126 -12 -53 -28 -111 -36 -127 -8 -16
-50 -56 -92 -89 -42 -33 -85 -67 -94 -75 -9 -8 -48 -30 -85 -49 -63 -32 -72
-34 -132 -28 -35 4 -85 4 -111 1 -62 -8 -181 0 -174 11 3 5 13 9 22 9 9 0 30
7 46 15 15 8 33 15 38 15 6 0 26 7 46 16 21 9 53 23 72 32 19 8 42 18 50 22 9
4 30 11 48 15 24 5 41 20 67 58 19 29 35 55 35 60 0 4 9 17 20 29 11 12 29 40
41 62 17 34 20 51 14 99 -8 75 -23 107 -49 107 -12 0 -48 14 -81 30 -33 16
-66 30 -72 30 -21 0 -14 16 12 28 14 6 25 16 25 21 0 11 89 78 154 115 51 30
94 45 111 40 6 -1 53 -5 105 -8z m220 -39 c66 -35 64 -49 -6 -45 -58 3 -59 3
-62 36 -4 39 8 41 68 9z m2605 -73 c82 -7 94 -14 72 -47 -8 -13 -18 -45 -22
-70 -9 -56 7 -68 56 -43 35 18 124 21 162 7 78 -30 120 -106 132 -236 4 -39
10 -82 15 -97 10 -31 -13 -156 -37 -201 -48 -93 -130 -171 -204 -191 -13 -4
-33 -11 -44 -15 -11 -5 -32 -13 -47 -20 -23 -9 -28 -17 -28 -45 0 -19 5 -38
11 -42 6 -3 17 -22 25 -40 13 -32 13 -35 -8 -56 l-23 -23 -400 3 c-432 4 -445
5 -445 57 0 13 5 27 10 30 6 4 19 24 30 46 20 37 20 51 14 391 -7 383 -1 568
21 568 19 0 37 -26 44 -63 19 -96 200 -74 201 25 0 33 32 44 147 51 44 3 89
10 100 16 17 11 44 10 218 -5z m-2501 -90 c10 -26 7 -42 -9 -48 -21 -8 -40 31
-24 50 15 18 25 18 33 -2z m-802 -20 c-2 -10 -8 -21 -12 -24 -4 -3 -25 -30
-45 -60 -21 -30 -43 -59 -49 -65 -13 -10 -46 -56 -132 -182 -26 -37 -50 -70
-54 -73 -4 -3 -24 -31 -44 -62 -19 -31 -40 -59 -46 -63 -5 -3 -29 7 -52 22
-24 16 -59 37 -79 47 -19 10 -44 25 -55 33 -17 13 -17 16 -3 26 8 7 30 35 49
62 36 52 71 93 180 205 51 53 78 72 125 89 33 12 69 25 80 30 54 24 113 40
130 36 6 -1 8 -11 7 -21z m103 -25 c22 -7 58 -23 80 -35 38 -21 40 -24 49 -88
9 -64 8 -68 -17 -94 -15 -16 -27 -32 -27 -38 -1 -28 -81 -116 -126 -139 -27
-14 -53 -25 -57 -25 -11 0 -62 -22 -143 -61 -34 -16 -66 -29 -71 -29 -5 0 -23
-6 -39 -14 -45 -22 -94 -25 -94 -5 0 7 15 30 33 53 19 23 40 52 47 66 7 14 32
46 54 71 23 25 51 66 63 90 12 24 34 57 48 73 14 16 25 32 25 35 0 3 11 18 24
33 14 14 39 49 57 77 17 29 36 50 43 47 6 -3 29 -10 51 -17z m1535 -129 c161
-17 210 -32 397 -122 97 -47 293 -205 293 -237 0 -4 7 -14 15 -21 25 -20 95
-176 106 -233 20 -107 21 -151 9 -239 -9 -62 -20 -101 -37 -124 -12 -19 -23
-38 -23 -42 0 -15 -43 -87 -56 -95 -8 -4 -14 -13 -14 -19 0 -15 -97 -108 -162
-155 -108 -78 -231 -129 -443 -183 -22 -5 -101 -13 -175 -16 -137 -6 -215 1
-340 31 -36 9 -76 18 -90 21 -14 3 -34 9 -45 14 -11 4 -42 16 -70 26 -27 9
-52 20 -55 23 -3 3 -27 17 -55 31 -27 14 -54 31 -58 38 -5 7 -17 16 -27 20
-34 13 -162 137 -199 192 -102 152 -128 271 -100 453 35 222 200 418 449 533
30 14 66 31 80 39 14 7 64 23 110 34 155 38 318 49 490 31z m-2185 -394 c28
-12 56 -30 63 -39 7 -9 26 -19 42 -22 16 -3 34 -12 40 -20 19 -22 69 -29 88
-12 19 17 112 34 112 21 0 -5 -39 -27 -87 -49 -47 -22 -91 -44 -97 -50 -6 -5
-28 -19 -49 -29 -21 -11 -49 -30 -63 -43 -14 -13 -27 -23 -30 -23 -9 0 -4 36
7 47 9 9 14 31 31 138 5 34 -38 32 -56 -2 -8 -15 -24 -35 -37 -43 -12 -8 -56
-50 -97 -92 -41 -43 -79 -75 -84 -72 -7 4 -6 9 0 13 6 3 14 20 18 36 4 17 25
62 46 102 21 39 38 81 38 93 0 28 29 70 49 70 9 0 39 -11 66 -24z m635 -71 c0
-3 -11 -16 -25 -29 -14 -13 -25 -32 -25 -42 0 -18 53 -56 110 -79 14 -5 36
-17 50 -26 14 -9 34 -21 44 -27 18 -9 17 -11 -10 -23 -17 -8 -30 -24 -32 -37
-3 -17 -8 -21 -23 -17 -10 4 -36 6 -57 7 -21 0 -48 8 -61 19 -29 24 -23 33 13
19 62 -23 125 0 96 35 -15 18 -61 41 -99 50 -16 3 -35 13 -42 21 -6 8 -17 14
-25 14 -15 0 -134 72 -134 81 0 16 82 37 148 38 39 1 72 -1 72 -4z m-640 -87
c0 -2 -4 -29 -10 -61 -16 -99 4 -110 91 -48 67 48 119 75 119 62 0 -6 -9 -15
-20 -21 -11 -6 -20 -16 -20 -22 0 -6 -17 -34 -38 -62 -21 -28 -50 -67 -64 -86
-38 -52 -125 -73 -196 -48 -31 12 -33 16 -29 44 3 18 17 50 31 73 14 22 26 47
26 54 0 13 63 93 85 109 10 7 25 11 25 6z m933 -162 c25 -19 21 -27 -8 -14
-14 6 -25 15 -25 20 0 12 12 9 33 -6z m247 -1012 c18 -4 50 -24 71 -44 32 -30
39 -44 39 -74 0 -71 -67 -150 -205 -246 -91 -63 -92 -59 28 -60 109 0 147 9
147 35 0 16 38 31 50 18 5 -4 4 -29 -2 -55 l-11 -48 -214 0 c-134 0 -213 4
-213 10 0 5 26 27 57 47 81 53 147 107 215 176 35 36 53 94 44 142 -6 29 -14
39 -41 51 -58 24 -135 15 -170 -20 -8 -7 -17 -26 -21 -40 -5 -23 -11 -27 -38
-24 -23 2 -32 9 -34 24 -4 27 42 82 83 100 32 14 160 18 215 8z m681 -31 c72
-50 103 -103 107 -184 10 -177 -128 -290 -318 -260 -34 6 -69 16 -78 23 -50
40 -65 56 -89 97 -23 39 -27 57 -27 117 1 91 30 153 94 198 62 43 73 45 175
43 83 -3 94 -5 136 -34z m576 22 c80 -33 103 -112 57 -191 -16 -27 -32 -51
-36 -52 -5 -2 -14 -9 -21 -16 -25 -23 -143 -122 -167 -138 -24 -16 -21 -17 88
-17 l113 -1 17 30 c21 36 35 43 58 25 14 -10 16 -16 7 -26 -6 -8 -13 -27 -15
-44 l-3 -30 -217 -3 c-247 -3 -261 2 -161 58 31 18 63 39 71 46 7 8 21 18 30
23 33 18 125 106 148 143 28 44 30 73 9 115 -31 61 -165 70 -205 13 -11 -15
-20 -33 -20 -39 0 -16 -48 -25 -65 -11 -27 22 14 91 70 116 43 19 195 18 242
-1z m653 -30 c53 -53 57 -105 15 -162 -31 -40 -125 -133 -136 -133 -3 0 -19
-11 -35 -25 -15 -13 -41 -30 -57 -36 -53 -22 -25 -33 79 -30 119 3 127 5 144
36 15 29 50 34 50 8 0 -10 -3 -35 -6 -56 l-7 -37 -213 0 c-118 0 -214 2 -214
4 0 21 21 41 64 63 51 26 114 73 168 125 16 16 32 28 36 28 10 0 50 78 56 111
4 18 -2 37 -17 60 -34 50 -102 64 -172 35 -27 -12 -35 -22 -41 -51 -6 -33 -9
-36 -38 -33 -26 3 -31 7 -34 33 -3 33 19 61 73 90 24 13 53 15 138 13 l107 -3
40 -40z"/>
<path d="M2032 3264 c-68 -58 -50 -99 45 -99 40 0 57 -4 63 -16 5 -9 24 -22
42 -30 18 -7 39 -19 46 -26 25 -24 54 -12 105 45 24 26 40 28 57 7 11 -13 4
-23 -41 -65 -30 -28 -57 -50 -61 -50 -5 0 -8 -4 -8 -10 0 -21 25 -8 85 45 68
59 79 64 93 39 7 -13 -2 -28 -44 -68 -52 -49 -64 -66 -46 -66 12 0 102 90 102
101 0 15 37 10 50 -6 10 -13 5 -22 -31 -56 -29 -26 -40 -42 -31 -46 7 -2 26
-16 41 -29 16 -13 32 -24 37 -24 4 0 39 -20 78 -44 39 -23 79 -46 89 -49 28
-10 20 -27 -13 -27 -16 0 -30 4 -30 10 0 5 -17 18 -37 29 -112 56 -149 77
-156 89 -9 14 -57 16 -57 2 0 -5 8 -10 18 -10 11 0 29 -9 42 -20 13 -11 27
-20 33 -20 5 0 22 -11 39 -25 16 -14 36 -25 43 -25 7 0 15 -3 17 -7 2 -5 24
-19 49 -32 44 -23 47 -23 79 -7 40 20 54 11 23 -14 -31 -25 -29 -35 13 -55 76
-36 174 11 174 83 0 28 -9 35 -104 90 -22 12 -47 29 -56 37 -9 8 -22 15 -28
15 -7 0 -12 3 -12 8 0 4 -16 16 -36 27 -20 11 -50 32 -68 47 -17 15 -36 28
-42 28 -7 0 -14 7 -17 15 -4 8 -21 21 -39 29 -18 8 -64 33 -103 56 -38 22 -79
44 -90 49 -11 5 -57 32 -102 60 -106 66 -149 69 -211 15z"/>
<path d="M2070 3131 c0 -6 29 -24 65 -42 36 -17 65 -36 65 -40 0 -5 9 -9 21
-9 36 0 15 24 -56 63 -68 37 -95 45 -95 28z"/>
<path d="M2218 2959 c-10 -10 -18 -24 -18 -31 0 -6 9 -2 20 10 12 12 25 22 30
22 6 0 10 5 10 10 0 16 -23 10 -42 -11z"/>
<path d="M3977 2406 c-7 -18 1 -26 25 -26 11 0 18 7 18 20 0 23 -35 28 -43 6z"/>
<path d="M4325 2390 c-3 -5 1 -10 9 -10 9 0 16 5 16 10 0 6 -4 10 -9 10 -6 0
-13 -4 -16 -10z"/>
<path d="M3953 2333 c-23 -8 -14 -33 12 -33 15 0 25 6 25 14 0 16 -19 25 -37
19z"/>
<path d="M4312 2319 c2 -6 8 -10 13 -10 5 0 11 4 13 10 2 6 -4 11 -13 11 -9 0
-15 -5 -13 -11z"/>
<path d="M4543 2296 c-23 -11 -33 -23 -38 -48 -4 -18 -13 -36 -19 -40 -7 -5
-12 -80 -14 -233 l-3 -225 33 -1 c18 -1 42 0 53 1 22 2 105 51 105 62 0 4 14
22 30 40 17 18 30 40 30 50 0 9 5 20 10 23 15 9 12 73 -10 186 -23 120 -43
165 -81 185 -34 17 -55 17 -96 0z"/>
<path d="M4156 2275 c-7 -18 16 -30 40 -21 13 5 14 9 4 21 -16 19 -36 19 -44
0z"/>
<path d="M4317 2244 c-4 -4 -7 -47 -7 -96 0 -77 -8 -106 -23 -80 -11 17 -16
131 -7 137 18 11 11 35 -10 35 -11 0 -20 -4 -20 -10 0 -5 -25 -10 -55 -10 -39
0 -55 -4 -55 -13 0 -7 -6 -22 -14 -32 -12 -16 -16 -17 -29 -6 -9 7 -17 22 -19
34 -2 17 -13 23 -48 29 -44 8 -120 2 -120 -9 0 -3 7 -11 15 -17 16 -12 28
-104 16 -121 -18 -23 -30 -108 -36 -235 -10 -227 -14 -240 -71 -226 l-27 7 7
202 c3 111 7 245 9 297 l2 95 -30 0 -30 0 -7 -215 c-4 -118 -12 -250 -19 -293
-12 -82 -5 -107 30 -107 9 0 21 -4 26 -9 9 -9 129 -26 260 -38 70 -6 314 22
351 41 30 15 30 17 28 83 -4 101 -24 408 -32 488 l-7 70 -35 3 c-20 2 -39 0
-43 -4z m54 -176 c4 -73 11 -168 15 -212 6 -65 5 -78 -7 -74 -20 7 -27 69 -28
253 -2 191 -3 180 6 172 3 -4 9 -66 14 -139z m-191 -36 c8 -29 7 -40 -5 -51
-13 -13 -17 -13 -29 -1 -16 17 -24 79 -12 98 12 19 34 -3 46 -46z m-80 33 c0
-8 -4 -15 -10 -15 -5 0 -10 7 -10 15 0 8 5 15 10 15 6 0 10 -7 10 -15z m104
-196 c-3 -5 -10 -7 -15 -3 -5 3 -7 10 -3 15 3 5 10 7 15 3 5 -3 7 -10 3 -15z
m-74 -19 c0 -5 -7 -10 -15 -10 -8 0 -15 5 -15 10 0 6 7 10 15 10 8 0 15 -4 15
-10z m40 -90 c0 -5 -7 -10 -15 -10 -8 0 -15 5 -15 10 0 6 7 10 15 10 8 0 15
-4 15 -10z m-20 -110 c0 -5 -7 -10 -15 -10 -8 0 -15 5 -15 10 0 6 7 10 15 10
8 0 15 -4 15 -10z"/>
<path d="M4385 1583 c-11 -3 -26 -10 -34 -17 -10 -7 -90 -11 -258 -11 -241 0
-264 -6 -103 -26 130 -16 383 12 420 47 15 14 10 15 -25 7z"/>
<path d="M3775 1570 c3 -5 20 -10 36 -10 18 0 28 4 24 10 -3 6 -20 10 -36 10
-18 0 -28 -4 -24 -10z"/>
<path d="M3840 1462 c0 -21 140 -34 300 -30 160 5 200 11 200 29 0 5 -110 9
-250 9 -137 0 -250 -4 -250 -8z"/>
<path d="M2510 2224 c-18 -8 -42 -22 -53 -32 -50 -46 -77 -78 -77 -90 0 -17
41 -72 54 -72 6 0 27 -16 46 -35 96 -96 97 -97 180 -90 41 4 120 9 174 11 100
4 136 10 136 22 0 4 25 36 55 72 30 35 55 70 55 76 0 7 -11 26 -25 42 -33 39
-140 76 -280 96 -136 20 -219 20 -265 0z"/>
<path d="M2305 2070 c-11 -5 -60 -23 -110 -41 -49 -17 -104 -42 -121 -55 -41
-30 -102 -137 -135 -236 l-25 -76 31 -34 c18 -18 47 -44 65 -58 19 -14 41 -32
50 -40 8 -8 28 -23 44 -33 25 -17 29 -17 45 -3 10 9 23 16 30 16 6 0 22 6 34
14 12 8 60 29 107 46 120 44 150 60 150 79 0 10 11 41 25 69 14 29 25 56 25
62 0 5 5 10 10 10 6 0 10 12 10 26 0 14 5 34 11 46 10 18 3 27 -55 82 -36 33
-72 66 -79 71 -31 26 -84 65 -88 64 -2 0 -13 -4 -24 -9z"/>
<path d="M3057 2010 c-31 -38 -57 -72 -57 -76 0 -3 -7 -13 -16 -21 -16 -16
-12 -65 7 -71 5 -2 9 -11 9 -19 0 -8 11 -38 25 -65 14 -27 28 -66 31 -87 7
-41 39 -67 127 -102 28 -11 84 -36 123 -55 74 -36 94 -41 94 -24 0 6 6 10 13
10 21 0 89 76 102 114 10 27 10 44 0 78 -15 53 -24 79 -36 98 -5 8 -14 26 -20
40 -11 28 -22 40 -105 122 -60 60 -182 128 -227 128 -7 0 -38 -31 -70 -70z"/>
<path d="M1910 2012 c-45 -31 -147 -144 -176 -195 -49 -85 -78 -160 -87 -224
-10 -65 -9 -74 8 -93 10 -11 25 -20 34 -20 9 0 48 33 87 73 38 40 77 76 85 79
8 3 20 27 27 54 16 60 74 184 113 242 16 24 29 47 29 52 0 10 -72 50 -87 49
-4 0 -19 -8 -33 -17z"/>
<path d="M2380 1569 c-30 -11 -82 -31 -115 -45 -33 -14 -71 -30 -85 -36 -72
-29 -75 -32 -92 -98 -9 -36 -16 -87 -16 -115 -1 -49 1 -51 51 -91 29 -23 62
-44 75 -48 12 -4 22 -11 22 -16 0 -10 121 -70 141 -70 8 0 20 -5 26 -11 7 -7
17 -7 29 -1 19 9 63 22 154 44 25 6 56 18 70 28 14 9 32 19 41 23 12 4 19 23
24 59 4 29 10 67 15 83 5 17 14 59 19 95 11 63 11 66 -14 88 -15 12 -34 22
-45 22 -10 0 -20 3 -22 8 -7 17 -156 94 -188 98 -19 2 -60 -6 -90 -17z"/>
<path d="M2990 1563 c-30 -14 -58 -32 -63 -39 -4 -7 -21 -15 -37 -19 -17 -4
-30 -10 -30 -14 0 -3 -13 -12 -30 -18 -16 -6 -34 -22 -39 -35 -13 -34 -41
-145 -53 -208 -6 -30 -15 -61 -21 -68 -8 -10 -7 -16 4 -23 26 -18 118 -59 131
-59 8 0 18 -4 23 -9 6 -5 35 -16 65 -25 l55 -17 75 32 c41 17 87 40 102 50 14
11 30 19 35 19 6 0 23 11 39 25 16 14 34 25 39 25 14 1 61 43 73 66 12 24 25
185 16 207 -3 9 -13 17 -21 17 -18 0 -48 12 -228 95 -56 26 -78 26 -135 -2z"/>
<path d="M1645 1450 c-9 -15 25 -141 46 -172 11 -14 19 -30 19 -36 0 -5 9 -19
20 -32 11 -13 20 -28 20 -34 0 -6 14 -26 31 -45 25 -26 33 -31 40 -20 17 28 4
70 -42 130 -15 19 -31 48 -35 65 -4 16 -10 34 -14 39 -4 6 -13 28 -20 50 -16
52 -49 80 -65 55z"/>
<path d="M3355 1192 c-11 -2 -29 -12 -40 -21 -37 -32 -202 -122 -284 -154 -42
-17 -171 -139 -171 -162 0 -6 13 -16 29 -23 24 -11 39 -10 92 4 35 10 76 26
91 36 14 10 32 18 40 18 27 0 205 126 270 192 79 80 86 104 30 110 -21 1 -47
2 -57 0z"/>
<path d="M1850 1175 c-10 -12 -10 -21 -2 -38 6 -12 14 -36 17 -54 7 -35 40
-83 57 -83 5 0 28 -14 49 -31 81 -64 271 -149 332 -149 48 0 145 31 152 48 3
8 -3 25 -14 36 -11 12 -27 40 -37 62 -14 33 -29 47 -69 68 -29 14 -55 26 -59
26 -4 0 -31 15 -59 33 -165 106 -140 97 -252 97 -80 0 -105 -3 -115 -15z"/>
<path d="M2428 828 c-70 -21 -45 -35 73 -43 141 -9 319 2 319 20 0 7 -7 16
-15 19 -32 12 -340 15 -377 4z"/>
<path d="M2200 473 c-22 -11 -43 -34 -58 -63 -20 -39 -23 -56 -20 -125 5 -101
28 -151 83 -182 85 -48 183 -15 217 72 38 97 11 240 -54 288 -38 29 -123 33
-168 10z"/>
<path d="M4997 3595 c-4 -8 -2 -17 3 -20 6 -4 10 3 10 14 0 25 -6 27 -13 6z"/>
<path d="M33 384 c-1 -19 3 -34 9 -32 5 2 9 7 9 11 -1 4 -1 18 -1 32 0 39 -16
29 -17 -11z"/>
<path d="M83 376 c-9 -11 -8 -18 7 -31 10 -9 25 -15 32 -12 9 4 6 8 -8 12 -15
5 -20 12 -17 26 6 22 3 23 -14 5z"/>
<path d="M57 309 c11 -12 58 -38 104 -59 46 -21 104 -49 129 -64 65 -37 204
-104 285 -137 38 -16 71 -33 73 -39 4 -12 42 -14 42 -2 0 4 -10 12 -22 17 -28
13 -35 35 -11 35 15 0 16 2 3 10 -10 6 -16 6 -18 0 -5 -13 -39 -13 -47 0 -3 6
-16 10 -28 10 -34 0 -94 24 -122 48 -14 12 -35 22 -46 22 -17 0 -19 3 -11 13
9 10 4 13 -23 14 -24 1 -47 12 -77 37 -23 20 -50 36 -59 36 -10 0 -21 5 -24
10 -3 6 -17 10 -30 10 -13 0 -27 5 -30 10 -3 6 3 10 14 10 12 0 21 4 21 9 0 6
-17 10 -38 9 -22 0 -48 5 -60 11 -35 18 -48 13 -25 -10z"/>
<path d="M205 280 c-3 -5 3 -10 14 -10 12 0 21 5 21 10 0 6 -6 10 -14 10 -8 0
-18 -4 -21 -10z"/>
<path d="M330 215 c0 -8 9 -15 20 -15 24 0 27 15 4 24 -22 9 -24 8 -24 -9z"/>
<path d="M400 200 c0 -5 5 -10 11 -10 5 0 7 5 4 10 -3 6 -8 10 -11 10 -2 0 -4
-4 -4 -10z"/>
<path d="M453 165 c0 -14 26 -30 35 -20 6 5 -17 35 -28 35 -3 0 -7 -7 -7 -15z"/>
<path d="M543 123 c-7 -2 -13 -9 -13 -14 0 -6 4 -7 10 -4 5 3 26 2 45 -4 19
-5 35 -8 35 -6 0 3 -62 36 -64 34 -1 0 -7 -3 -13 -6z"/>
<path d="M728 23 c7 -3 16 -2 19 1 4 3 -2 6 -13 5 -11 0 -14 -3 -6 -6z"/>
<path d="M780 10 c0 -5 7 -10 16 -10 8 0 12 5 9 10 -3 6 -10 10 -16 10 -5 0
-9 -4 -9 -10z"/>
</g>
</svg>
